<svg width="168" height="32" viewBox="0 0 168 32" fill="none" xmlns="http://www.w3.org/2000/svg">
<path d="M32.126 9.0004C32.5025 8.24732 32.8144 7.60013 33.1438 6.95883C33.6616 5.92922 34.197 4.90549 34.7029 3.87C34.8795 3.51111 35.1324 3.36402 35.5149 3.42874C39.298 4.08181 42.3338 5.94687 44.2989 9.25928C47.8172 15.1898 46.3405 22.3853 40.8512 26.5685C36.1974 30.1162 29.3019 30.3869 24.2303 26.0919C23.7303 25.6683 23.236 25.2388 22.7654 24.6917C22.2888 25.5742 21.8475 26.4155 21.3886 27.2451C21.0886 27.7864 20.7885 28.3335 20.4532 28.8572C18.8823 31.2871 15.8464 31.1988 14.452 28.663C12.9929 26.0037 11.5809 23.3149 10.1394 20.6438C6.93878 14.7074 3.73228 8.77683 0.525782 2.84628C0.390462 2.59917 0.225723 2.36383 0.10217 2.10495C-0.156704 1.56367 0.0903971 1.12241 0.684629 1.11653C1.9437 1.10476 3.20864 1.04593 4.46183 1.14006C5.80915 1.24008 6.88583 1.95787 7.60362 3.09338C8.85092 5.07612 9.88052 7.18829 10.9749 9.25339C12.9811 13.0482 14.9639 16.8549 16.9701 20.6556C17.1054 20.9145 17.2055 21.2145 17.4996 21.3557C17.7291 21.291 17.782 21.0851 17.8703 20.9203C18.2351 20.2496 18.5763 19.5671 18.947 18.9023C19.1058 18.614 19.1235 18.3669 18.9587 18.061C16.1052 12.807 13.2812 7.53541 10.3336 2.3403C10.2747 2.23439 10.21 2.12261 10.157 2.01082C9.91582 1.47542 10.1217 1.05181 10.7101 1.04593C12.0751 1.04004 13.4459 0.904724 14.805 1.1283C16.1229 1.34599 17.1525 2.08142 17.8056 3.2287C18.8293 5.0114 19.7707 6.84116 20.7414 8.65916C22.4653 11.8951 24.1656 15.1369 25.9013 18.3669C26.9073 20.2379 28.2841 21.7205 30.2668 22.6207C35.0383 24.774 40.5158 21.3145 40.4688 16.143C40.4452 13.0071 38.0036 10.03 34.9442 9.32399C34.0558 9.11807 33.1615 9.05335 32.1319 9.00629L32.126 9.0004Z" fill="url(#paint0_linear_6_1919)"/>
<path d="M27.1779 17.3782C26.0129 15.1366 24.8833 12.9715 23.7537 10.8063C23.6419 10.5887 23.6007 10.3945 23.7242 10.1533C24.8833 7.91755 25.9423 5.63475 27.1837 3.44021C28.0721 1.87521 29.3783 1.03975 31.2257 1.0927C32.4142 1.128 33.6026 1.0927 34.7911 1.09859C35.5501 1.09859 35.7089 1.39864 35.3324 2.11643C33.7909 5.02875 32.2435 7.9352 30.6962 10.8416C29.596 12.9067 28.5016 14.9718 27.4014 17.037C27.3544 17.1252 27.2838 17.2076 27.1779 17.3664V17.3782Z" fill="url(#paint1_linear_6_1919)"/>
<path d="M58.6705 7.54545L62.8892 20.8068H63.0511L67.2784 7.54545H71.3693L65.3523 25H60.5966L54.571 7.54545H58.6705ZM73.402 25V11.9091H77.0327V25H73.402ZM75.2259 10.2216C74.6861 10.2216 74.223 10.0426 73.8366 9.68466C73.456 9.32102 73.2656 8.88636 73.2656 8.38068C73.2656 7.88068 73.456 7.4517 73.8366 7.09375C74.223 6.73011 74.6861 6.54829 75.2259 6.54829C75.7656 6.54829 76.2259 6.73011 76.6065 7.09375C76.9929 7.4517 77.1861 7.88068 77.1861 8.38068C77.1861 8.88636 76.9929 9.32102 76.6065 9.68466C76.2259 10.0426 75.7656 10.2216 75.2259 10.2216ZM80.0092 25V7.54545H83.6399V14.108H83.7507C83.9098 13.7557 84.1399 13.3977 84.4411 13.0341C84.7479 12.6648 85.1456 12.358 85.6342 12.1136C86.1286 11.8636 86.7422 11.7386 87.4751 11.7386C88.4297 11.7386 89.3104 11.9886 90.1172 12.4886C90.924 12.983 91.5689 13.7301 92.0518 14.7301C92.5348 15.7244 92.7763 16.9716 92.7763 18.4716C92.7763 19.9318 92.5405 21.1648 92.0689 22.1705C91.603 23.1705 90.9666 23.929 90.1598 24.446C89.3587 24.9574 88.4609 25.2131 87.4666 25.2131C86.7621 25.2131 86.1626 25.0966 85.6683 24.8636C85.1797 24.6307 84.7791 24.3381 84.4666 23.9858C84.1541 23.6278 83.9155 23.267 83.7507 22.9034H83.5888V25H80.0092ZM83.5632 18.4545C83.5632 19.233 83.6712 19.9119 83.8871 20.4915C84.103 21.071 84.4155 21.5227 84.8246 21.8466C85.2337 22.1648 85.7308 22.3239 86.3161 22.3239C86.907 22.3239 87.407 22.1619 87.8161 21.8381C88.2251 21.5085 88.5348 21.054 88.745 20.4744C88.9609 19.8892 89.0689 19.2159 89.0689 18.4545C89.0689 17.6989 88.9638 17.0341 88.7536 16.4602C88.5433 15.8864 88.2337 15.4375 87.8246 15.1136C87.4155 14.7898 86.9126 14.6278 86.3161 14.6278C85.7251 14.6278 85.2251 14.7841 84.8161 15.0966C84.4126 15.4091 84.103 15.8523 83.8871 16.4261C83.6712 17 83.5632 17.6761 83.5632 18.4545ZM101.165 25.2557C99.8182 25.2557 98.6591 24.983 97.6875 24.4375C96.7216 23.8864 95.9773 23.108 95.4545 22.1023C94.9318 21.0909 94.6705 19.8949 94.6705 18.5142C94.6705 17.1676 94.9318 15.9858 95.4545 14.9688C95.9773 13.9517 96.7131 13.1591 97.6619 12.5909C98.6165 12.0227 99.7358 11.7386 101.02 11.7386C101.884 11.7386 102.688 11.8778 103.432 12.1562C104.182 12.429 104.835 12.8409 105.392 13.392C105.955 13.9432 106.392 14.6364 106.705 15.4716C107.017 16.3011 107.173 17.2727 107.173 18.3864V19.3835H96.1193V17.1335H103.756C103.756 16.6108 103.642 16.1477 103.415 15.7443C103.188 15.3409 102.872 15.0256 102.469 14.7983C102.071 14.5653 101.608 14.4489 101.08 14.4489C100.528 14.4489 100.04 14.5767 99.6136 14.8324C99.1932 15.0824 98.8636 15.4205 98.625 15.8466C98.3864 16.267 98.2642 16.7358 98.2585 17.2528V19.392C98.2585 20.0398 98.3778 20.5994 98.6165 21.071C98.8608 21.5426 99.2045 21.9062 99.6477 22.1619C100.091 22.4176 100.616 22.5455 101.224 22.5455C101.628 22.5455 101.997 22.4886 102.332 22.375C102.668 22.2614 102.955 22.0909 103.193 21.8636C103.432 21.6364 103.614 21.358 103.739 21.0284L107.097 21.25C106.926 22.0568 106.577 22.7614 106.048 23.3636C105.526 23.9602 104.849 24.4261 104.02 24.7614C103.196 25.0909 102.244 25.2557 101.165 25.2557ZM109.543 25V11.9091H113.003V14.2188H113.156C113.429 13.4517 113.884 12.8466 114.52 12.4034C115.156 11.9602 115.918 11.7386 116.804 11.7386C117.702 11.7386 118.466 11.9631 119.097 12.4119C119.727 12.8551 120.148 13.4574 120.358 14.2188H120.494C120.761 13.4688 121.244 12.8693 121.943 12.4205C122.648 11.9659 123.48 11.7386 124.44 11.7386C125.662 11.7386 126.653 12.1278 127.415 12.9062C128.182 13.679 128.565 14.7756 128.565 16.196V25H124.943V16.9119C124.943 16.1847 124.75 15.6392 124.364 15.2756C123.977 14.9119 123.494 14.7301 122.915 14.7301C122.256 14.7301 121.741 14.9403 121.372 15.3608C121.003 15.7756 120.818 16.3239 120.818 17.0057V25H117.298V16.8352C117.298 16.1932 117.114 15.6818 116.744 15.3011C116.381 14.9205 115.901 14.7301 115.304 14.7301C114.901 14.7301 114.537 14.8324 114.213 15.0369C113.895 15.2358 113.642 15.517 113.455 15.8807C113.267 16.2386 113.173 16.6591 113.173 17.142V25H109.543ZM135.166 25.2472C134.331 25.2472 133.587 25.1023 132.933 24.8125C132.28 24.517 131.763 24.0824 131.382 23.5085C131.007 22.929 130.82 22.2074 130.82 21.3438C130.82 20.6165 130.953 20.0057 131.22 19.5114C131.487 19.017 131.851 18.6193 132.311 18.3182C132.771 18.017 133.294 17.7898 133.879 17.6364C134.47 17.483 135.089 17.375 135.737 17.3125C136.499 17.233 137.112 17.1591 137.578 17.0909C138.044 17.017 138.382 16.9091 138.592 16.767C138.803 16.625 138.908 16.4148 138.908 16.1364V16.0852C138.908 15.5455 138.737 15.1278 138.396 14.8324C138.061 14.5369 137.584 14.3892 136.964 14.3892C136.311 14.3892 135.791 14.5341 135.405 14.8239C135.018 15.108 134.763 15.4659 134.638 15.8977L131.28 15.625C131.45 14.8295 131.786 14.142 132.286 13.5625C132.786 12.9773 133.43 12.5284 134.22 12.2159C135.016 11.8977 135.936 11.7386 136.982 11.7386C137.709 11.7386 138.405 11.8239 139.07 11.9943C139.74 12.1648 140.334 12.429 140.851 12.7869C141.374 13.1449 141.786 13.6051 142.087 14.1676C142.388 14.7244 142.538 15.392 142.538 16.1705V25H139.095V23.1847H138.993C138.783 23.5938 138.501 23.9545 138.149 24.267C137.797 24.5739 137.374 24.8153 136.879 24.9915C136.385 25.1619 135.814 25.2472 135.166 25.2472ZM136.206 22.7415C136.74 22.7415 137.212 22.6364 137.621 22.4261C138.03 22.2102 138.351 21.9205 138.584 21.5568C138.817 21.1932 138.933 20.7812 138.933 20.321V18.9318C138.82 19.0057 138.663 19.0739 138.464 19.1364C138.271 19.1932 138.053 19.2472 137.808 19.2983C137.564 19.3437 137.32 19.3864 137.075 19.4261C136.831 19.4602 136.609 19.4915 136.411 19.5199C135.984 19.5824 135.612 19.6818 135.294 19.8182C134.976 19.9545 134.729 20.1392 134.553 20.3722C134.376 20.5994 134.288 20.8835 134.288 21.2244C134.288 21.7188 134.467 22.0966 134.825 22.358C135.189 22.6136 135.649 22.7415 136.206 22.7415ZM152.318 11.9091V14.6364H144.435V11.9091H152.318ZM146.224 8.77273H149.855V20.9773C149.855 21.3125 149.906 21.5739 150.009 21.7614C150.111 21.9432 150.253 22.071 150.435 22.1449C150.622 22.2187 150.838 22.2557 151.082 22.2557C151.253 22.2557 151.423 22.2415 151.594 22.2131C151.764 22.179 151.895 22.1534 151.986 22.1364L152.557 24.8381C152.375 24.8949 152.119 24.9602 151.79 25.0341C151.46 25.1136 151.06 25.1619 150.588 25.179C149.713 25.2131 148.946 25.0966 148.287 24.8295C147.634 24.5625 147.125 24.1477 146.761 23.5852C146.398 23.0227 146.219 22.3125 146.224 21.4545V8.77273ZM160.509 25.2557C159.162 25.2557 158.003 24.983 157.031 24.4375C156.065 23.8864 155.321 23.108 154.798 22.1023C154.276 21.0909 154.014 19.8949 154.014 18.5142C154.014 17.1676 154.276 15.9858 154.798 14.9688C155.321 13.9517 156.057 13.1591 157.006 12.5909C157.96 12.0227 159.08 11.7386 160.364 11.7386C161.227 11.7386 162.031 11.8778 162.776 12.1562C163.526 12.429 164.179 12.8409 164.736 13.392C165.298 13.9432 165.736 14.6364 166.048 15.4716C166.361 16.3011 166.517 17.2727 166.517 18.3864V19.3835H155.463V17.1335H163.099C163.099 16.6108 162.986 16.1477 162.759 15.7443C162.531 15.3409 162.216 15.0256 161.812 14.7983C161.415 14.5653 160.952 14.4489 160.423 14.4489C159.872 14.4489 159.384 14.5767 158.957 14.8324C158.537 15.0824 158.207 15.4205 157.969 15.8466C157.73 16.267 157.608 16.7358 157.602 17.2528V19.392C157.602 20.0398 157.722 20.5994 157.96 21.071C158.205 21.5426 158.548 21.9062 158.991 22.1619C159.435 22.4176 159.96 22.5455 160.568 22.5455C160.972 22.5455 161.341 22.4886 161.676 22.375C162.011 22.2614 162.298 22.0909 162.537 21.8636C162.776 21.6364 162.957 21.358 163.082 21.0284L166.44 21.25C166.27 22.0568 165.92 22.7614 165.392 23.3636C164.869 23.9602 164.193 24.4261 163.364 24.7614C162.54 25.0909 161.588 25.2557 160.509 25.2557Z" fill="black"/>
<defs>
<linearGradient id="paint0_linear_6_1919" x1="4.86826e-07" y1="30.6237" x2="26.9206" y2="-11.3631" gradientUnits="userSpaceOnUse">
<stop stop-color="#FD267A"/>
<stop offset="1" stop-color="#FF6036"/>
</linearGradient>
<linearGradient id="paint1_linear_6_1919" x1="23.6488" y1="17.3782" x2="39.1578" y2="6.06674" gradientUnits="userSpaceOnUse">
<stop stop-color="#FD267A"/>
<stop offset="1" stop-color="#FF6036"/>
</linearGradient>
</defs>
</svg>
